<?xml version="1.0" standalone="no"?>
<!DOCTYPE svg PUBLIC "-//W3C//DTD SVG 20010904//EN"
 "http://www.w3.org/TR/2001/REC-SVG-20010904/DTD/svg10.dtd">
<svg version="1.0" xmlns="http://www.w3.org/2000/svg"
 width="512.000000pt" height="512.000000pt" viewBox="0 0 512.000000 512.000000"
 preserveAspectRatio="xMidYMid meet">
<metadata>
Created by potrace 1.14, written by Peter Selinger 2001-2017
</metadata>
<g transform="translate(0.000000,512.000000) scale(0.100000,-0.100000)"
fill="#000000" stroke="none">
<path d="M1460 5107 c0 -18 66 -126 96 -157 l24 -26 -28 -34 c-28 -33 -31 -34
-128 -41 -105 -7 -150 -20 -245 -71 -131 -69 -281 -247 -343 -405 -22 -58 -32
-73 -48 -73 -65 0 -159 -114 -183 -223 -4 -22 -17 -34 -58 -52 -29 -13 -62
-26 -74 -30 -22 -6 -23 -4 -14 58 0 5 5 6 10 2 26 -15 49 105 29 144 -17 31
-36 38 -44 14 -19 -58 -75 -160 -89 -160 -10 0 -13 6 -10 17 8 25 -54 112 -97
135 -35 19 -39 19 -54 3 -16 -16 -15 -20 14 -65 17 -26 41 -79 54 -118 14 -43
34 -79 52 -95 28 -26 29 -28 17 -74 -11 -43 -10 -51 9 -82 12 -18 18 -39 15
-45 -10 -15 15 -60 28 -52 6 4 8 -7 4 -29 -5 -33 -2 -39 34 -67 l39 -32 -30
-32 c-44 -46 -110 -146 -110 -167 0 -10 -24 -33 -57 -55 -128 -85 -214 -188
-252 -303 -17 -49 -21 -87 -21 -183 0 -116 2 -126 32 -193 17 -39 51 -97 74
-129 l42 -58 -20 -67 c-31 -99 -31 -288 0 -395 33 -117 111 -272 175 -352 31
-38 57 -73 57 -77 0 -5 -9 -8 -20 -8 -34 0 -94 -36 -132 -78 -67 -74 -84 -190
-44 -287 l14 -34 -89 6 -89 6 0 -572 0 -571 434 0 434 0 26 66 c37 92 65 214
72 315 6 80 4 95 -29 206 -20 66 -40 128 -43 138 -12 30 12 9 46 -42 23 -33
30 -54 27 -73 -20 -95 166 -244 382 -306 85 -24 104 -26 215 -21 75 3 142 12
176 23 43 14 81 17 179 15 80 -2 121 0 117 7 -3 5 1 13 10 16 24 9 31 7 14 -4
-13 -9 -13 -10 0 -10 9 0 25 7 36 15 12 8 25 11 29 7 3 -4 5 -2 3 4 -6 19 72
95 112 109 68 24 157 6 204 -41 9 -9 23 -17 31 -18 8 -1 32 -23 54 -48 40 -44
155 -111 211 -122 14 -2 45 -9 70 -15 46 -11 244 -8 290 4 14 3 36 8 50 11 14
3 43 10 65 16 22 6 45 12 52 14 6 1 50 21 98 44 71 34 93 51 126 95 22 29 45
69 50 88 8 29 17 38 47 48 85 28 155 83 168 133 5 23 34 46 34 27 0 -4 27 -7
60 -7 33 0 60 4 60 8 0 4 15 5 33 2 133 -21 254 -11 328 28 106 56 224 166
267 248 7 14 30 33 50 44 115 57 229 175 292 301 49 99 68 173 74 292 3 51 8
98 11 104 12 19 5 160 -11 222 -8 33 -29 88 -47 120 -29 57 -45 141 -28 151
13 9 4 74 -12 91 -10 9 -17 18 -17 20 0 3 24 42 54 87 30 46 61 100 69 120 9
21 29 55 45 75 100 129 101 376 1 505 -28 35 -29 40 -22 110 15 167 0 305 -42
390 -21 41 -71 120 -132 208 -10 14 -28 36 -41 50 -13 14 -30 39 -39 55 -9 17
-19 32 -22 35 -3 3 -19 23 -36 45 -33 45 -55 67 -105 109 -31 26 -35 34 -35
77 0 27 5 49 10 49 6 0 5 3 -1 8 -6 4 -17 32 -24 62 -24 105 -94 207 -185 270
-25 17 -45 34 -45 38 0 4 -10 18 -23 32 -12 14 -48 57 -79 97 -32 39 -79 91
-104 115 -73 69 -101 72 -123 13 -7 -19 -17 -35 -23 -35 -6 0 -29 20 -52 44
-34 36 -50 45 -89 51 -27 4 -45 11 -40 15 4 3 51 19 103 35 114 34 245 88 280
115 25 19 17 20 -1332 20 -1112 0 -1358 -2 -1358 -13z m-963 -949 c-3 -8 -6
-5 -6 6 -1 11 2 17 5 13 3 -3 4 -12 1 -19z"/>
<path d="M2086 203 c-6 -14 -5 -15 5 -6 7 7 10 15 7 18 -3 3 -9 -2 -12 -12z"/>
</g>
</svg>
